<mxfile host="app.diagrams.net" modified="2023-05-16T16:55:31.283Z" agent="Mozilla/5.0 (Macintosh; Intel Mac OS X 10_15_7) AppleWebKit/537.36 (KHTML, like Gecko) Chrome/113.0.0.0 Safari/537.36 Edg/113.0.1774.42" version="21.3.2" etag="SQZfMXZ0V-M5p7i5Edfb" type="github">
  <diagram name="Page-1" id="netmqRoNATK0myRWnRED">
    <mxGraphModel>
      <root>
        <mxCell id="0" />
        <mxCell id="1" parent="0" />
      </root>
    </mxGraphModel>
  </diagram>
</mxfile>
